<svg width="150" height="150" viewBox="0 0 150 150" fill="none" xmlns="http://www.w3.org/2000/svg">
<circle cx="75" cy="75" r="75" fill="url(#paint0_linear_381_5286)"/>
<path d="M36.875 56.875C39.6875 61.4063 42.8125 62.0313 45 59.375C48.4375 55.3125 44.6875 50.1563 40.625 48.75C33.9062 46.0938 28.125 53.5938 28.125 53.5938C28.125 53.5938 34.5313 52.9688 36.875 56.875Z" fill="#F29A2E"/>
<path d="M91.875 40.9377C79.8437 47.9689 89.8438 64.8439 68.125 69.3752L91.25 80.7814C95.9375 88.9064 108.906 89.5314 108.906 89.5314C108.906 89.5314 112.187 79.8439 109.531 72.6564C116.719 72.6564 121.719 68.2814 121.719 68.2814C121.719 68.2814 117.656 53.9064 105.312 53.9064C117.5 48.9064 119.688 38.5939 119.688 38.5939C119.688 38.5939 108.906 31.0939 91.875 40.9377Z" fill="#E1EAF2"/>
<path d="M80.7813 121.875H58.4375C58.4375 120 71.5625 119.688 72.1875 107.188C74.2188 121.094 80.7813 120 80.7813 121.875Z" fill="#F4BC58"/>
<path d="M102.188 72.8126C102.188 90.7814 87.5 109.219 69.375 109.219C51.25 109.219 36.5625 90.7814 36.5625 72.8126C36.5625 60.7814 62.5 69.2189 69.375 69.2189C87.5 69.0626 102.188 54.6876 102.188 72.8126Z" fill="#D1DCE6"/>
<path d="M81.875 101.875C81.875 105.469 76.7188 113.281 72.1875 113.281C67.6563 113.281 62.5 107.969 62.5 104.375C62.5 100.781 81.875 100.156 81.875 101.875Z" fill="#D1DCE6"/>
<path d="M35.1562 66.0937C35.1562 70.7812 36.0937 84.3749 36.0937 84.3749L40.3125 79.0624L45.3125 84.9999L46.4062 76.7187L54.0625 82.1874L52.6563 74.0624L61.875 74.9999L57.6562 69.9999L64.0625 65.7812C64.0625 65.7812 56.25 67.4999 56.4062 62.6562C56.5625 57.8124 60.4688 44.0624 55.625 42.0312C46.7188 38.7499 35.1562 46.2499 35.1562 66.0937Z" fill="#E1EAF2"/>
<path d="M35.1562 50.625C35.7603 50.625 36.25 50.4151 36.25 50.1563C36.25 49.8974 35.7603 49.6875 35.1562 49.6875C34.5522 49.6875 34.0625 49.8974 34.0625 50.1563C34.0625 50.4151 34.5522 50.625 35.1562 50.625Z" fill="#3E4347"/>
<path d="M42.9688 53.4375C44.2632 53.4375 45.3125 52.3882 45.3125 51.0938C45.3125 49.7993 44.2632 48.75 42.9688 48.75C41.6743 48.75 40.625 49.7993 40.625 51.0938C40.625 52.3882 41.6743 53.4375 42.9688 53.4375Z" fill="#3E4347"/>
<path d="M37.1877 61.875C37.1877 66.875 33.9064 63.2812 33.9064 63.2812C32.8127 63.2812 28.2814 66.7188 29.8439 60.9375C31.8752 53.4375 39.6877 48.4375 39.6877 48.4375C39.6877 48.4375 37.1877 52.8125 37.1877 61.875Z" fill="#E24B4B"/>
<path d="M57.5014 41.5627V39.6877C57.1889 35.7814 62.8139 34.2189 62.1889 32.1877C61.2514 29.5314 53.9077 31.2502 50.3139 37.0314C49.8452 37.6564 49.5327 38.4377 49.3764 39.3752C49.2202 38.7502 49.0639 38.1252 48.7514 37.5002C47.0327 33.9064 52.1889 30.6252 50.6264 28.9064C48.5952 26.5627 42.5014 30.6252 41.0952 37.3439C40.7827 38.7502 40.7827 40.1564 41.2514 41.5627C41.0952 41.4064 40.9389 41.2502 40.7827 41.2502C38.1264 39.2189 40.7827 35.0002 38.9077 34.0627C36.0952 32.8127 33.5952 38.4377 35.0014 43.9064C35.9389 47.0314 39.3764 50.3127 42.1889 47.6564C43.1264 46.8752 45.3139 45.6252 46.5639 45.1564C47.5014 44.8439 50.0014 45.0002 51.5639 46.0939C52.9702 47.0314 54.0639 48.9064 56.0952 48.9064C65.0014 49.2189 69.8452 40.6252 66.5639 38.7502C64.8452 37.5002 62.1889 40.6252 57.5014 41.5627Z" fill="#E24B4B"/>
<path d="M91.4077 93.5938C90.0014 90.1563 85.9389 88.2813 85.9389 88.2813C90.1577 86.0938 92.6577 81.4063 92.6577 81.4063C90.4702 80.4688 82.0327 79.8438 82.0327 79.8438C83.9077 77.9688 85.4702 75.3126 85.4702 75.3126C85.4702 75.3126 75.7827 72.9688 67.6577 77.3438C57.0327 83.2813 60.1577 97.3438 72.1889 98.9063C85.4702 100.625 91.4077 93.5938 91.4077 93.5938Z" fill="#E1EAF2"/>
<defs>
<linearGradient id="paint0_linear_381_5286" x1="75" y1="0" x2="75" y2="150" gradientUnits="userSpaceOnUse">
<stop stop-color="#FFEAEA"/>
<stop offset="1" stop-color="#D9EDFF"/>
</linearGradient>
</defs>
</svg>
