<svg width="150" height="150" viewBox="0 0 150 150" fill="none" xmlns="http://www.w3.org/2000/svg">
<circle cx="75" cy="75" r="75" fill="url(#paint0_linear_381_5285)"/>
<path d="M78.5938 104.219H82.5V121.094H78.5938V104.219Z" fill="#E08828"/>
<path d="M81.7188 121.25C81.7188 120.469 84.5312 118.906 87.9688 118.906C91.4062 118.906 94.2188 120.469 94.2188 121.25C94.2188 122.031 91.4062 121.875 87.9688 121.875C84.5312 121.875 81.7188 122.031 81.7188 121.25Z" fill="#E08828"/>
<path d="M74.2188 121.25C74.2188 120.469 77.0312 118.906 80.4688 118.906C83.9062 118.906 86.7188 120.469 86.7188 121.25C86.7188 122.031 83.9062 121.875 80.4688 121.875C77.0312 121.875 74.2188 122.031 74.2188 121.25Z" fill="#E08828"/>
<path d="M66.875 121.25C66.875 120.469 69.6875 118.906 73.125 118.906C76.5625 118.906 79.375 120.469 79.375 121.25C79.375 122.031 76.5625 121.875 73.125 121.875C69.6875 121.875 66.875 122.031 66.875 121.25Z" fill="#E08828"/>
<path d="M46.875 112.031L43.75 109.844L53.5937 97.0312L56.7187 99.2188L46.875 112.031Z" fill="#E08828"/>
<path d="M46.0953 111.563C46.564 110.938 49.8453 111.25 52.5015 113.125C55.314 115 56.564 117.969 56.0953 118.594C55.6265 119.219 53.439 117.5 50.6265 115.625C47.9703 113.75 45.6265 112.188 46.0953 111.563Z" fill="#E08828"/>
<path d="M40.1578 107.5C40.6265 106.875 43.9078 107.188 46.564 109.063C49.3765 110.938 50.6265 113.906 50.1578 114.531C49.689 115.156 47.5015 113.438 44.689 111.563C42.0328 109.531 39.689 108.125 40.1578 107.5Z" fill="#E08828"/>
<path d="M34.3753 103.281C34.844 102.656 38.1253 102.969 40.7815 104.844C43.594 106.719 44.844 109.688 44.3752 110.313C43.9065 110.938 41.719 109.219 38.9065 107.344C36.094 105.469 33.7503 103.906 34.3753 103.281Z" fill="#E08828"/>
<path d="M120.156 72.6562C127.344 72.6562 112.5 105.625 76.7187 105.625C52.3437 105.625 35.3125 95.3125 35.3125 76.25C35.3125 57.1875 48.75 38.75 73.125 45C97.9687 51.25 80.4688 72.6562 120.156 72.6562Z" fill="#FFD93B"/>
<path d="M56.25 59.0625C54.5312 65.7812 75.625 59.375 71.7187 45.625C67.8125 31.875 54.8438 28.125 54.8438 28.125C54.8438 28.125 60.7812 41.4062 56.25 59.0625Z" fill="#FFD93B"/>
<path d="M56.7187 59.844C61.875 64.844 69.2188 46.719 54.0625 41.4065C38.9063 36.094 31.5625 40.0002 31.5625 40.0002C31.5625 40.0002 43.125 46.5627 56.7187 59.844Z" fill="#FFD93B"/>
<path d="M73.9052 65.1563C73.4364 71.875 54.9989 62.0313 63.1239 49.375C71.2489 36.7188 85.1552 35.4688 85.1552 35.4688C85.1552 35.4688 75.3114 47.0312 73.9052 65.1563Z" fill="#FFD93B"/>
<path d="M114.375 89.3751C106.562 90.7813 93.2812 96.0938 78.4375 96.0938C60.625 96.0938 45.3125 88.5938 38.5938 89.0626C44.5312 99.8438 58.5937 105.625 76.7187 105.625C94.5312 105.625 107.031 97.5001 114.375 89.3751Z" fill="#FFEA92"/>
<path d="M30.3125 73.75L39.0625 72.1875C39.0625 76.25 38.75 78.9062 35.7812 78.9062C32.9688 79.0625 30.3125 77.8125 30.3125 73.75Z" fill="#E08828"/>
<path d="M39.0625 72.3437L28.125 75.3125C28.125 70.3125 32.1875 64.6875 35.7812 64.6875C39.5312 64.8438 39.0625 67.3437 39.0625 72.3437Z" fill="#F29A2E"/>
<path d="M42.1875 64.2188C42.1875 61.7188 44.2187 59.0625 46.7187 59.0625C49.2187 59.0625 51.25 61.7188 51.25 64.2188C51.25 66.7188 49.2187 67.8125 46.7187 67.8125C44.2187 67.6563 42.1875 66.5625 42.1875 64.2188Z" fill="#3E4347"/>
<path d="M100.781 83.2812C100.781 91.5625 90.3125 98.2813 77.3437 98.2813C64.375 98.2813 62.0312 91.5625 62.0312 83.2812C62.0312 75 64.375 68.2812 77.3437 68.2812C90.3125 68.2812 100.781 75 100.781 83.2812Z" fill="#FFBF3E"/>
<path d="M105 82.6563C102.813 83.2813 101.094 82.3438 101.094 82.3438C103.438 80.3125 104.062 76.875 104.062 76.875C102.5 78.2813 99.6875 78.2812 99.6875 78.2812C100.469 75.7812 100 73.9062 100 73.9062C96.4063 79.2188 83.75 79.375 83.75 79.375C91.4062 84.375 95.4688 91.0938 95.4688 91.0938C101.562 88.9062 105 82.6563 105 82.6563Z" fill="#FFBF3E"/>
<defs>
<linearGradient id="paint0_linear_381_5285" x1="75" y1="0" x2="75" y2="150" gradientUnits="userSpaceOnUse">
<stop stop-color="#FFF7D6"/>
<stop offset="1" stop-color="#FFC44C"/>
</linearGradient>
</defs>
</svg>
