<svg width="150" height="150" viewBox="0 0 150 150" fill="none" xmlns="http://www.w3.org/2000/svg">
<circle cx="75" cy="75" r="75" fill="url(#paint0_linear_381_5288)"/>
<path d="M121.623 79.4084C123.831 76.4571 124.999 72.9446 124.999 69.2503C124.999 61.0624 119.169 54.2107 111.441 52.6284C108.728 42.1442 99.2068 34.5864 88.0942 34.5864C78.1383 34.5864 69.2486 40.7543 65.6562 49.8598C68.0437 49.2703 70.535 48.9573 73.0926 48.9573C87.6526 48.9573 100.083 59.0646 103.263 72.9581C109.523 73.9767 114.878 77.7256 118.064 82.9381C119.404 81.9539 120.603 80.7715 121.623 79.4084Z" fill="#57A4FF"/>
<path d="M73.0935 48.957C70.5362 48.957 68.0448 49.2702 65.6572 49.8595C54.4527 52.6257 45.5444 61.5047 42.9232 72.9578C32.7729 74.6094 25 83.4374 25 94.0467C25 105.828 34.5848 115.413 46.3663 115.413H73.0935V48.957Z" fill="#BDDBFF"/>
<path d="M103.264 72.9578C100.084 59.0645 87.6537 48.957 73.0938 48.957V115.413H99.821C111.602 115.413 121.187 105.828 121.187 94.0469C121.187 89.9809 120.044 86.177 118.065 82.9378C114.879 77.7253 109.524 73.9764 103.264 72.9578Z" fill="#BDDBFF"/>
<defs>
<linearGradient id="paint0_linear_381_5288" x1="75" y1="0" x2="75" y2="150" gradientUnits="userSpaceOnUse">
<stop stop-color="#E6F1FF"/>
<stop offset="1" stop-color="#6FB1FF"/>
</linearGradient>
</defs>
</svg>
