<svg width="150" height="150" viewBox="0 0 150 150" fill="none" xmlns="http://www.w3.org/2000/svg">
<circle cx="75" cy="75" r="75" fill="url(#paint0_linear_381_5287)"/>
<path d="M60.1497 79.2811C60.1497 79.2811 69.3919 78.7342 67.9622 66.1952C66.5325 53.6561 62.0247 53.4374 60.2669 47.1717C58.5091 40.9061 58.47 34.6483 57.6262 34.1952C56.9778 33.8436 51.9075 37.7108 51.9075 37.7108C51.9075 37.7108 47.2122 41.6561 46.845 40.5702C46.3294 39.0311 50.8059 31.8827 51.4622 30.453C52.1184 29.0233 51.845 26.6795 48.8216 28.4764C46.1106 30.078 29.8997 43.2108 30.2356 53.4374C30.5716 63.6639 42.7747 75.1014 42.7747 75.1014L50.1419 67.7342L60.1497 79.2811Z" fill="#4F3B37"/>
<path d="M78.0391 95.8516C78.0391 95.8516 86.5469 100.766 88.7422 102.453C90.9375 104.141 94.3125 106.852 94.3125 106.852C94.3125 106.852 92.7734 110.734 91.2344 111.687C89.6953 112.641 87.7188 112.937 87.7188 112.937C87.7188 112.937 85.0781 115.727 83.2422 115.867C81.4063 116.008 79.8672 115.062 79.8672 115.062C79.8672 115.062 77.4453 115.945 76.4219 115.867C75.3984 115.797 72.3906 113.445 72.3906 113.445L78.0391 95.8516Z" fill="url(#paint1_linear_381_5287)"/>
<path d="M64.9844 73.125C64.9844 73.125 69.0156 73.4922 71 66.8203C72.9766 60.1485 72.5391 54.8672 76.3516 50.9063C80.1641 46.9453 83.9063 46.1407 88.0078 45.8438C92.1172 45.5469 107.656 44.961 111.547 44.6719C115.43 44.375 118.656 43.3516 119.023 44.1563C119.297 44.7578 114.695 52.586 114.695 52.586C114.695 52.586 104.359 52.7344 104.141 54.9297C103.922 57.1328 111.859 55.9375 111.914 57.0547C111.992 58.5938 105.242 67.1719 102.82 69.5938C100.398 72.0157 98.4219 72.3047 97.6172 73.5547C96.8125 74.8047 93.2891 85.5782 89.1094 89.3907C84.9297 93.2032 79.6484 93.5 79.6484 93.5C79.6484 93.5 82.8047 97.8985 81.7734 101.641C80.75 105.383 78.9141 110.328 76.7109 112.898C75.1563 114.719 72.7109 116.305 70.2578 114.547C67.5234 112.586 67.6953 108.609 68.3516 106.188C69.0078 103.766 68.6484 102.156 68.6484 102.156C68.6484 102.156 64.7422 106.227 62.4141 108.242C59.9609 110.367 57.6875 113.891 54.4922 110C50.9141 105.648 54.75 103.109 56.2188 101.203C57.6875 99.2969 58.2344 98.4922 58.2344 98.4922L52.9531 87.3438L64.9844 73.125Z" fill="#70534C"/>
<path d="M44.2596 66.3592C42.658 67.9607 38.4314 72.281 44.0408 77.117C49.6502 81.9529 49.8143 84.8357 51.2986 86.867C52.7908 88.9138 53.9939 90.8826 54.9314 91.8748C55.8689 92.867 58.283 94.8982 59.0564 94.6795C59.8299 94.4607 58.2283 88.6326 58.6189 88.2967C59.0096 87.9607 63.2908 90.9373 63.9549 90.4998C64.6502 90.031 63.1814 84.3982 63.5174 84.117C63.8455 83.8435 67.6814 86.4763 68.1893 86.0388C68.908 85.4373 65.9861 73.7732 65.7127 73.1717C65.5643 72.8513 61.5486 69.8826 58.1268 67.5623C55.0799 65.4998 53.8377 64.5388 50.9783 64.156C48.3377 63.8045 45.4627 65.1482 44.2596 66.3592Z" fill="#FFEAC8"/>
<path d="M43.4854 84.1797C43.8135 83.3516 44.2041 82.4453 46.3447 80.8516C48.4932 79.2578 51.8682 76.8906 51.9541 76.1484C52.0401 75.4609 47.4619 75.9062 46.0869 75.7969C44.7119 75.6875 43.1572 75.4844 42.2744 74.7734C41.4854 74.1328 41.4697 73.5234 41.4697 73.5234C41.4697 73.5234 38.1104 75.8359 37.7119 78.5078C37.2744 81.4766 38.2588 83.5703 40.2432 85C42.2276 86.4297 43.0557 86.8125 43.5713 86.5391C44.2041 86.2109 43.4854 84.1797 43.4854 84.1797Z" fill="#FFB903"/>
<path d="M42.0691 83.2109C42.1785 82.4141 42.4598 80.7734 44.1394 79.125C45.5691 77.7188 48.0457 75.7734 48.7332 75.7734H50.6551C50.6551 75.7734 50.1082 76.8984 49.116 77.5312C48.1238 78.1641 46.8738 79.1328 45.2957 80.5313C43.6473 81.9922 43.5066 84.1328 43.5066 84.1328C43.5066 84.1328 44.1082 85.8672 43.6473 86.4453C43.2332 86.9375 41.9598 84.0156 42.0691 83.2109Z" fill="#FF8E01"/>
<path d="M47.665 72.8514C47.7275 73.3671 48.1337 74.3905 49.5634 74.0858C50.7509 73.8358 51.6259 72.2186 51.2431 71.0624C50.9306 70.1327 50.1728 69.9374 49.6493 70.2655C49.1259 70.5936 47.5243 71.7264 47.665 72.8514Z" fill="#302F2F"/>
<path d="M87.4609 111.984C87.2891 112.086 86.0313 114.297 83.7188 114.883C81.4063 115.469 80.4922 114.297 80.0156 114.297C79.5391 114.297 77.9063 115.304 76.4063 115.156C75.2344 115.039 73.3047 113.375 73.3047 113.375L72.5 114.656C72.5 114.656 74.3672 116.672 76.4609 116.781C78.5469 116.89 79.8672 115.976 79.8672 115.976C79.8672 115.976 81.9219 117.023 84.0859 116.601C87.0937 116.015 88.2266 113.375 88.2266 113.375C88.2266 113.375 90.7188 113.117 92.3672 111.875C94.0156 110.625 95.5 107.367 94.3984 106.851C93.2969 106.336 92.6953 109.086 91.375 110.148C90.0547 111.211 87.9375 111.695 87.4609 111.984Z" fill="#70534C"/>
<path d="M45.2273 112.086C44.8211 111.211 46.4773 106.89 50.8758 107.039C55.2742 107.187 57.2898 110.445 56.8914 113.672C56.4852 116.898 54.3602 117.922 53.8524 117.555C53.3367 117.187 52.7898 114.875 52.7898 114.875L50.5555 112.055C50.5398 112.062 46.0711 113.883 45.2273 112.086Z" fill="#FFB903"/>
<path d="M62.2361 117.07C61.6346 115.898 62.9158 113.328 64.7283 112.391C66.9705 111.227 68.6268 111.164 71.1814 113.227C74.6111 115.992 71.9158 120.914 70.3924 121.547C68.2752 122.43 68.7986 121.555 68.8377 120.492C68.8768 119.43 67.8846 116.719 67.8846 116.719L62.2361 117.07Z" fill="#FFB903"/>
<path d="M53.8454 112.859C54.1579 114.023 54.4469 117.476 53.6813 117.422C53.1657 117.383 52.486 115.367 52.1969 114.601C51.9079 113.836 50.0485 112.711 49.3532 112.68C48.6579 112.64 46.2516 113.14 46.1813 112.68C46.0329 111.773 48.9157 110.406 50.0485 110.445C51.0407 110.469 53.5094 111.617 53.8454 112.859Z" fill="#F4821E"/>
<path d="M62.2033 116.898C62.2424 117.734 64.5158 117.156 65.4299 117.266C66.3439 117.375 67.5002 117.828 68.0158 118.891C68.258 119.391 68.4767 121.805 68.9845 121.844C69.9377 121.914 70.1955 118.633 70.0861 118.336C69.758 117.445 68.4767 115.234 65.9767 114.992C64.6564 114.851 62.1799 116.461 62.2033 116.898Z" fill="#F4821E"/>
<defs>
<linearGradient id="paint0_linear_381_5287" x1="75" y1="0" x2="75" y2="150" gradientUnits="userSpaceOnUse">
<stop stop-color="#E1E1E1"/>
<stop offset="1" stop-color="#89736E"/>
</linearGradient>
<linearGradient id="paint1_linear_381_5287" x1="78.5914" y1="95.6734" x2="85.0609" y2="115.345" gradientUnits="userSpaceOnUse">
<stop offset="0.207" stop-color="#AC8979"/>
<stop offset="0.309" stop-color="#B59482"/>
<stop offset="0.485" stop-color="#CDB099"/>
<stop offset="0.714" stop-color="#F4DDBE"/>
<stop offset="0.771" stop-color="#FFEAC8"/>
</linearGradient>
</defs>
</svg>
