<svg width="150" height="150" viewBox="0 0 150 150" fill="none" xmlns="http://www.w3.org/2000/svg">
<circle cx="75" cy="75" r="75" fill="url(#paint0_linear_381_5278)"/>
<path d="M117.927 71.0344C112.888 34.7531 89.91 15 74.3897 15C58.8694 15 35.8913 34.7531 30.8522 71.0344C26.0147 107.316 41.9381 135.938 74.3897 135.938C106.841 135.938 122.765 107.316 117.927 71.0344Z" fill="#FFC294"/>
<path opacity="0.33" d="M118.687 70.228C114.656 41.6062 99.5391 23.264 85.6312 16.814C95.1047 26.2874 103.57 41.203 106.191 61.3593C111.23 97.6405 95.3062 126.262 62.6531 126.262C55.5984 126.262 49.35 124.851 44.1094 122.433C51.5672 130.495 62.0484 135.131 75.15 135.131C107.602 135.131 123.525 106.509 118.687 70.228Z" fill="#D3976E"/>
<defs>
<linearGradient id="paint0_linear_381_5278" x1="75" y1="0" x2="75" y2="150" gradientUnits="userSpaceOnUse">
<stop stop-color="#FCE5D2"/>
<stop offset="1" stop-color="#FFD5B5"/>
</linearGradient>
</defs>
</svg>
