<svg width="14" height="15" viewBox="0 0 14 15" fill="none" xmlns="http://www.w3.org/2000/svg">
<path fill-rule="evenodd" clip-rule="evenodd" d="M5.7487 2.17969C4.64363 2.17969 3.58382 2.61867 2.80242 3.40008C2.02102 4.18148 1.58203 5.24129 1.58203 6.34635C1.58203 7.45142 2.02102 8.51123 2.80242 9.29263C3.58382 10.074 4.64363 10.513 5.7487 10.513C6.85377 10.513 7.91357 10.074 8.69498 9.29263C9.47638 8.51123 9.91536 7.45142 9.91536 6.34635C9.91536 5.24129 9.47638 4.18148 8.69498 3.40008C7.91357 2.61867 6.85377 2.17969 5.7487 2.17969ZM0.332031 6.34635C0.332031 4.90976 0.902714 3.53201 1.91854 2.51619C2.93436 1.50037 4.31211 0.929688 5.7487 0.929688C7.18529 0.929688 8.56304 1.50037 9.57886 2.51619C10.5947 3.53201 11.1654 4.90976 11.1654 6.34635C11.1654 7.78294 10.5947 9.16069 9.57886 10.1765C8.56304 11.1923 7.18529 11.763 5.7487 11.763C4.31211 11.763 2.93436 11.1923 1.91854 10.1765C0.902714 9.16069 0.332031 7.78294 0.332031 6.34635Z" fill="#767676"/>
<path fill-rule="evenodd" clip-rule="evenodd" d="M9.05778 9.65544C9.17497 9.5384 9.33382 9.47266 9.49945 9.47266C9.66508 9.47266 9.82393 9.5384 9.94112 9.65544L13.2745 12.9888C13.3359 13.046 13.3851 13.115 13.4193 13.1917C13.4534 13.2683 13.4718 13.3511 13.4733 13.435C13.4748 13.5189 13.4593 13.6023 13.4279 13.6801C13.3965 13.7579 13.3497 13.8286 13.2903 13.888C13.231 13.9473 13.1603 13.9941 13.0824 14.0255C13.0046 14.057 12.9213 14.0724 12.8373 14.0709C12.7534 14.0695 12.6707 14.0511 12.594 14.0169C12.5173 13.9828 12.4483 13.9335 12.3911 13.8721L9.05778 10.5388C8.94074 10.4216 8.875 10.2627 8.875 10.0971C8.875 9.93148 8.94074 9.77263 9.05778 9.65544Z" fill="#767676"/>
</svg>
