<svg width="127" height="63" viewBox="0 0 127 63" fill="none" xmlns="http://www.w3.org/2000/svg">
<mask id="mask0_78_792" style="mask-type:luminance" maskUnits="userSpaceOnUse" x="0" y="7" width="125" height="45">
<path d="M0 7.06641H124.667V51.8625H0V7.06641Z" fill="white"/>
</mask>
<g mask="url(#mask0_78_792)">
<mask id="mask1_78_792" style="mask-type:luminance" maskUnits="userSpaceOnUse" x="0" y="7" width="125" height="45">
<path d="M107.156 7.06641C116.827 7.06641 124.664 17.0786 124.664 29.4266C124.664 41.7771 116.827 51.7893 107.156 51.7893H17.5103C7.83987 51.7893 0 41.7771 0 29.4266C0 17.0786 7.83987 7.06641 17.5103 7.06641H107.156Z" fill="white"/>
</mask>
<g mask="url(#mask1_78_792)">
<path d="M107.156 7.06641C116.827 7.06641 124.664 17.0786 124.664 29.4266C124.664 41.7771 116.827 51.7893 107.156 51.7893H17.5104C7.83987 51.7893 0 41.7771 0 29.4266C0 17.0786 7.83987 7.06641 17.5104 7.06641H107.156Z" stroke="black" stroke-width="3.7353"/>
</g>
</g>
<mask id="mask2_78_792" style="mask-type:luminance" maskUnits="userSpaceOnUse" x="107" y="38" width="18" height="21">
<path d="M107.474 38.1172H124.969V58.7371H107.474V38.1172Z" fill="white"/>
</mask>
<g mask="url(#mask2_78_792)">
<mask id="mask3_78_792" style="mask-type:luminance" maskUnits="userSpaceOnUse" x="97" y="27" width="30" height="35">
<path d="M97.1147 32.1779L119.412 27.0547L126.212 56.6324L103.915 61.7556L97.1147 32.1779Z" fill="white"/>
</mask>
<g mask="url(#mask3_78_792)">
<mask id="mask4_78_792" style="mask-type:luminance" maskUnits="userSpaceOnUse" x="97" y="27" width="30" height="35">
<path d="M97.1147 32.1779L119.412 27.0547L126.212 56.6324L103.915 61.7556L97.1147 32.1779Z" fill="white"/>
</mask>
<g mask="url(#mask4_78_792)">
<path d="M124.14 48.3384L108.899 38.7948C108.68 38.6581 108.401 38.6655 108.191 38.8144C107.981 38.9632 107.884 39.2244 107.94 39.4758L111.884 56.6347C111.938 56.8714 112.123 57.0569 112.36 57.1106C112.597 57.1668 112.846 57.0813 112.997 56.8934L115.577 53.7106L119.461 58.0211C119.622 58.1968 119.858 58.2627 120.076 58.2139C120.168 58.1919 120.259 58.148 120.339 58.0845L123.629 55.3703C123.764 55.2605 123.847 55.1019 123.859 54.9286C123.871 54.7553 123.813 54.5844 123.698 54.455L120.039 50.3935L123.944 49.4978C124.193 49.4392 124.386 49.2366 124.428 48.9828C124.469 48.7289 124.357 48.4751 124.14 48.3384Z" fill="#FFDE59"/>
</g>
</g>
</g>
<mask id="mask5_78_792" style="mask-type:luminance" maskUnits="userSpaceOnUse" x="105" y="29" width="4" height="7">
<path d="M105.599 29.9941H108.099V35.6178H105.599V29.9941Z" fill="white"/>
</mask>
<g mask="url(#mask5_78_792)">
<mask id="mask6_78_792" style="mask-type:luminance" maskUnits="userSpaceOnUse" x="97" y="27" width="30" height="35">
<path d="M97.1147 32.1799L119.412 27.0566L126.212 56.6343L103.915 61.7576L97.1147 32.1799Z" fill="white"/>
</mask>
<g mask="url(#mask6_78_792)">
<mask id="mask7_78_792" style="mask-type:luminance" maskUnits="userSpaceOnUse" x="97" y="27" width="30" height="35">
<path d="M97.1147 32.1818L119.412 27.0586L126.212 56.6363L103.915 61.7595L97.1147 32.1818Z" fill="white"/>
</mask>
<g mask="url(#mask7_78_792)">
<path d="M106.424 30.0416C106.08 30.1197 105.867 30.4614 105.945 30.8031L106.8 34.5204C106.878 34.8621 107.219 35.0769 107.561 34.9988C107.903 34.9183 108.118 34.579 108.04 34.2349L107.185 30.5175C107.107 30.1758 106.765 29.9635 106.424 30.0416Z" fill="#FFDE59"/>
</g>
</g>
</g>
<mask id="mask8_78_792" style="mask-type:luminance" maskUnits="userSpaceOnUse" x="98" y="39" width="7" height="4">
<path d="M98.7256 39.3652H104.349V42.4895H98.7256V39.3652Z" fill="white"/>
</mask>
<g mask="url(#mask8_78_792)">
<mask id="mask9_78_792" style="mask-type:luminance" maskUnits="userSpaceOnUse" x="97" y="27" width="30" height="35">
<path d="M97.1147 32.1799L119.412 27.0566L126.212 56.6343L103.915 61.7576L97.1147 32.1799Z" fill="white"/>
</mask>
<g mask="url(#mask9_78_792)">
<mask id="mask10_78_792" style="mask-type:luminance" maskUnits="userSpaceOnUse" x="97" y="27" width="30" height="35">
<path d="M97.1147 32.1818L119.412 27.0586L126.212 56.6363L103.915 61.7595L97.1147 32.1818Z" fill="white"/>
</mask>
<g mask="url(#mask10_78_792)">
<path d="M103.461 39.852L99.7411 40.7063C99.3994 40.7868 99.1871 41.1285 99.2652 41.4702C99.3433 41.8119 99.685 42.0267 100.027 41.9462L103.744 41.0919C104.088 41.0138 104.301 40.6721 104.222 40.3304C104.144 39.9887 103.803 39.7739 103.461 39.852Z" fill="#FFDE59"/>
</g>
</g>
</g>
<mask id="mask11_78_792" style="mask-type:luminance" maskUnits="userSpaceOnUse" x="112" y="36" width="7" height="4">
<path d="M112.472 36.2402H118.096V39.3645H112.472V36.2402Z" fill="white"/>
</mask>
<g mask="url(#mask11_78_792)">
<mask id="mask12_78_792" style="mask-type:luminance" maskUnits="userSpaceOnUse" x="97" y="27" width="30" height="35">
<path d="M97.1147 32.1779L119.412 27.0547L126.212 56.6324L103.915 61.7556L97.1147 32.1779Z" fill="white"/>
</mask>
<g mask="url(#mask12_78_792)">
<mask id="mask13_78_792" style="mask-type:luminance" maskUnits="userSpaceOnUse" x="97" y="27" width="30" height="35">
<path d="M97.1147 32.1779L119.412 27.0547L126.212 56.6324L103.915 61.7556L97.1147 32.1779Z" fill="white"/>
</mask>
<g mask="url(#mask13_78_792)">
<path d="M117.09 36.7181L113.373 37.5724C113.031 37.6505 112.819 37.9922 112.897 38.3339C112.975 38.6756 113.317 38.8904 113.659 38.8123L117.376 37.958C117.718 37.8775 117.932 37.5358 117.854 37.1941C117.774 36.8523 117.434 36.6376 117.09 36.7181Z" fill="#FFDE59"/>
</g>
</g>
</g>
<mask id="mask14_78_792" style="mask-type:luminance" maskUnits="userSpaceOnUse" x="99" y="33" width="6" height="5">
<path d="M99.9756 33.7402H104.974V37.4893H99.9756V33.7402Z" fill="white"/>
</mask>
<g mask="url(#mask14_78_792)">
<mask id="mask15_78_792" style="mask-type:luminance" maskUnits="userSpaceOnUse" x="97" y="27" width="30" height="35">
<path d="M97.1147 32.1779L119.412 27.0547L126.212 56.6324L103.915 61.7556L97.1147 32.1779Z" fill="white"/>
</mask>
<g mask="url(#mask15_78_792)">
<mask id="mask16_78_792" style="mask-type:luminance" maskUnits="userSpaceOnUse" x="97" y="27" width="30" height="35">
<path d="M97.1147 32.1799L119.412 27.0566L126.212 56.6343L103.915 61.7576L97.1147 32.1799Z" fill="white"/>
</mask>
<g mask="url(#mask16_78_792)">
<path d="M104.586 36.0942L101.352 34.0708C101.054 33.8828 100.661 33.9732 100.476 34.2709C100.29 34.5687 100.381 34.9617 100.678 35.1472L103.91 37.1706C104.061 37.2634 104.232 37.2878 104.391 37.2512C104.549 37.2145 104.696 37.1193 104.786 36.9705C104.974 36.6727 104.884 36.2797 104.586 36.0942Z" fill="#FFDE59"/>
</g>
</g>
</g>
<mask id="mask17_78_792" style="mask-type:luminance" maskUnits="userSpaceOnUse" x="103" y="42" width="4" height="7">
<path d="M103.1 42.4902H106.849V48.1139H103.1V42.4902Z" fill="white"/>
</mask>
<g mask="url(#mask17_78_792)">
<mask id="mask18_78_792" style="mask-type:luminance" maskUnits="userSpaceOnUse" x="97" y="27" width="30" height="35">
<path d="M97.1147 32.1799L119.412 27.0566L126.212 56.6343L103.915 61.7576L97.1147 32.1799Z" fill="white"/>
</mask>
<g mask="url(#mask18_78_792)">
<mask id="mask19_78_792" style="mask-type:luminance" maskUnits="userSpaceOnUse" x="97" y="27" width="30" height="35">
<path d="M97.1147 32.1818L119.412 27.0586L126.212 56.6363L103.915 61.7595L97.1147 32.1818Z" fill="white"/>
</mask>
<g mask="url(#mask19_78_792)">
<path d="M106.197 43.1061C105.899 42.9206 105.509 43.0109 105.321 43.3087L103.295 46.5428C103.11 46.8381 103.2 47.2311 103.498 47.419C103.647 47.5093 103.82 47.5337 103.979 47.4971C104.137 47.4605 104.281 47.3629 104.374 47.2164L106.4 43.9824C106.585 43.687 106.495 43.2941 106.197 43.1061Z" fill="#FFDE59"/>
</g>
</g>
</g>
<mask id="mask20_78_792" style="mask-type:luminance" maskUnits="userSpaceOnUse" x="110" y="30" width="5" height="7">
<path d="M110.598 30.6191H114.347V36.2428H110.598V30.6191Z" fill="white"/>
</mask>
<g mask="url(#mask20_78_792)">
<mask id="mask21_78_792" style="mask-type:luminance" maskUnits="userSpaceOnUse" x="97" y="27" width="30" height="35">
<path d="M97.1147 32.1779L119.412 27.0547L126.212 56.6324L103.915 61.7556L97.1147 32.1779Z" fill="white"/>
</mask>
<g mask="url(#mask21_78_792)">
<mask id="mask22_78_792" style="mask-type:luminance" maskUnits="userSpaceOnUse" x="97" y="27" width="30" height="35">
<path d="M97.1147 32.1779L119.412 27.0547L126.212 56.6324L103.915 61.7556L97.1147 32.1779Z" fill="white"/>
</mask>
<g mask="url(#mask22_78_792)">
<path d="M113.622 31.2465C113.324 31.0585 112.931 31.1488 112.743 31.449L110.72 34.6807C110.532 34.9784 110.622 35.3714 110.92 35.5569C111.069 35.6497 111.242 35.6741 111.401 35.6375C111.559 35.6009 111.703 35.5057 111.799 35.3568L113.822 32.1227C114.01 31.8249 113.92 31.4344 113.622 31.2465Z" fill="#FFDE59"/>
</g>
</g>
</g>
<path d="M37.1198 27.4658C37.1198 27.4462 37.1809 27.3486 37.3053 27.1729C37.3493 27.1289 37.4469 27.0045 37.5982 26.8019C37.6495 26.7579 37.6983 26.7042 37.7447 26.6457C37.7959 26.5822 37.8448 26.509 37.8911 26.4309C37.9424 26.3869 37.9937 26.3137 38.0473 26.2161C38.0913 26.0672 38.1767 25.9305 38.3012 25.806L38.5257 25.5815L38.8577 25.1421C38.909 25.0909 38.9578 25.0347 39.0041 24.9761C39.0554 24.9127 39.1164 24.8443 39.1896 24.7711C39.3385 24.4733 39.3996 24.261 39.3751 24.1365C39.2775 23.8631 39.1311 23.7045 38.9358 23.6581C38.7064 23.6581 38.4598 23.6947 38.1938 23.7655C38.0425 23.7924 37.9009 23.8314 37.7642 23.8827C37.6275 23.929 37.4957 23.9779 37.3737 24.0291C37.2297 24.0755 37.0954 24.117 36.9734 24.156C36.8489 24.1951 36.7488 24.2293 36.6707 24.2537C36.351 24.3977 36.019 24.5075 35.6749 24.5856C35.4991 24.6588 35.3161 24.7272 35.1281 24.7906C34.9451 24.8492 34.7816 24.9054 34.64 24.9566C34.3398 25.1006 34.1152 25.1714 33.9663 25.1714C33.8931 25.1983 33.8126 25.2178 33.7222 25.23C33.6368 25.2446 33.5367 25.2764 33.4196 25.3276C33.2438 25.4008 33.0803 25.4545 32.9314 25.4936C32.7801 25.5278 32.6703 25.5571 32.5995 25.5815C32.5018 25.6083 32.3969 25.6474 32.287 25.6986C32.1748 25.745 32.0576 25.7938 31.9356 25.8451C31.6622 25.9696 31.5011 26.094 31.4572 26.2161C31.3058 26.3601 31.2668 26.5187 31.34 26.6945C31.4376 27.0655 31.711 27.1778 32.1601 27.0264C32.2041 27.0264 32.2822 27.0118 32.3944 26.9776C32.5043 26.9386 32.6336 26.9068 32.785 26.88C32.907 26.8287 33.0193 26.7921 33.1169 26.7726C33.2146 26.7482 33.2878 26.7213 33.3415 26.6945C33.6344 26.5968 33.9273 26.4943 34.2202 26.3821C34.5179 26.2722 34.8304 26.1648 35.1574 26.0599L36.7879 25.4741C36.9099 25.4228 37.0076 25.3862 37.0808 25.3667C37.1516 25.3423 37.2272 25.3154 37.3053 25.2886H37.4127C37.4127 25.3349 37.3981 25.3716 37.3737 25.396C37.3468 25.4228 37.3053 25.4741 37.2468 25.5522C37.1882 25.6254 37.1198 25.7084 37.0417 25.806C36.9441 25.9037 36.8684 25.9866 36.8172 26.0501C36.7708 26.1087 36.722 26.1648 36.6707 26.2161L36.4462 26.509C36.3998 26.5822 36.351 26.6505 36.2997 26.714C36.2534 26.7726 36.2045 26.8287 36.1533 26.88C36.1069 26.9532 36.0581 27.0215 36.0068 27.085C35.9531 27.1436 35.9043 27.1997 35.8604 27.251C35.7823 27.3486 35.7091 27.4462 35.6456 27.5439C35.587 27.6415 35.5333 27.7391 35.4894 27.8368C35.4162 27.9417 35.3478 28.0564 35.2844 28.1785C35.2258 28.2956 35.1696 28.4177 35.1184 28.5397L35.011 28.7643C34.9329 28.9156 34.8597 29.0523 34.7962 29.1743C34.7376 29.2988 34.6839 29.4233 34.64 29.5453C34.535 29.7943 34.4252 30.0896 34.308 30.4338C34.0591 31.0977 33.937 31.642 33.937 32.0642C33.937 32.1619 33.9395 32.2668 33.9468 32.3767C33.959 32.4889 33.9785 32.6061 34.0054 32.7281C34.0054 33.0015 34.1543 33.2017 34.4545 33.3237C34.701 33.4482 34.9719 33.5092 35.2648 33.5092C35.5821 33.5092 35.8311 33.4482 36.0068 33.3237C36.1045 33.2724 36.1948 33.2163 36.2802 33.1577C36.3705 33.0943 36.4511 33.0479 36.5243 33.021C36.6732 32.9771 36.8099 32.8917 36.9343 32.7672C37.0051 32.7159 37.0759 32.6549 37.1491 32.5817C37.2272 32.5036 37.3151 32.4157 37.4127 32.3181C37.4835 32.2473 37.5543 32.1814 37.6275 32.1228C37.7056 32.0594 37.7691 31.991 37.8228 31.9178L38.1547 31.4687C38.1987 31.4174 38.2524 31.3491 38.311 31.2637C38.3744 31.1807 38.4598 31.0879 38.5648 30.9903C38.6356 30.8683 38.7137 30.7438 38.7991 30.6193C38.8894 30.4973 38.9846 30.3459 39.0823 30.1702C39.153 30.0286 39.2116 29.8822 39.258 29.7308C39.3092 29.582 39.3483 29.4453 39.3751 29.3208C39.4459 28.8009 39.4093 28.3933 39.2678 28.1004C39.0456 27.7294 38.8113 27.5097 38.5648 27.4365C38.2646 27.3852 37.9302 27.3852 37.5592 27.4365C37.486 27.456 37.4323 27.4731 37.3932 27.4853C37.3542 27.4999 37.3102 27.5048 37.2663 27.5048C37.1687 27.5585 37.093 27.5829 37.0417 27.5829C37.0417 27.5829 37.0466 27.5707 37.0613 27.5439C37.0735 27.5195 37.093 27.4926 37.1198 27.4658ZM43.4855 36.9459C43.4855 38.0076 43.6563 38.5373 44.0029 38.5373C44.1982 38.6154 44.3837 38.5324 44.5594 38.2834C44.6571 38.1077 44.7303 37.8612 44.784 37.5414C44.8035 37.3462 44.8181 37.168 44.8328 37.0044C44.845 36.8433 44.8523 36.7115 44.8523 36.6139C44.8255 36.4455 44.8255 36.2478 44.8523 36.0184C44.8767 35.6278 44.9036 35.2471 44.9304 34.8761C44.9548 34.5051 44.9792 34.1609 44.9988 33.8412C44.9988 33.497 45.0036 33.1651 45.0183 32.8453C45.0305 32.5207 45.05 32.1985 45.0769 31.8787C45.0769 31.5541 45.0818 31.2246 45.0964 30.8927C45.1086 30.5607 45.1281 30.2239 45.155 29.8773C45.155 29.5331 45.155 29.1695 45.155 28.7838C45.155 28.4006 45.1647 27.9881 45.1843 27.5439L45.2233 25.396C45.1965 25.1031 45.1769 24.8395 45.1647 24.6051C45.1574 24.3708 45.155 24.1804 45.155 24.0291C45.1281 23.7826 45.1281 23.5092 45.155 23.209L45.1159 21.1002C45.1159 20.9781 45.1208 20.8536 45.1354 20.7291C45.1477 20.6071 45.155 20.4826 45.155 20.3581C45.1281 20.2361 45.1159 20.1189 45.1159 20.0067C45.1159 19.8968 45.1159 19.7699 45.1159 19.6259C45.1159 19.5478 45.1208 19.4477 45.1354 19.3232C45.1477 19.2012 45.155 19.067 45.155 18.923C45.155 18.7741 45.1477 18.6252 45.1354 18.4738C45.1208 18.325 45.1159 18.1761 45.1159 18.0247C45.0622 17.7074 45.0134 17.4975 44.9695 17.3999C44.8914 17.2778 44.7181 17.2144 44.452 17.2144C44.2494 17.2144 44.1005 17.2632 44.0029 17.3608C43.9053 17.5122 43.8296 17.7709 43.7784 18.1419V19.5869C43.732 19.7382 43.732 19.87 43.7784 19.9871C43.8028 20.1385 43.8174 20.2752 43.8174 20.3972C43.8174 20.5217 43.8174 20.6462 43.8174 20.7682C43.7906 20.8927 43.771 21.022 43.7588 21.1587C43.7442 21.2954 43.7393 21.4272 43.7393 21.5493L43.8174 23.1407C43.6929 23.187 43.5758 23.2359 43.4659 23.2871C43.3537 23.3408 43.2365 23.3896 43.1145 23.4336C43.0168 23.4873 42.9119 23.5312 42.802 23.5702C42.6898 23.6044 42.5726 23.6459 42.4506 23.6972C42.248 23.7704 42.0844 23.8412 41.9624 23.912C41.8184 23.9901 41.5963 24.0657 41.2985 24.1365C41.03 24.261 40.8225 24.3855 40.6737 24.5075C40.4979 24.6833 40.4491 24.8834 40.5272 25.1031C40.5272 25.2983 40.6492 25.4228 40.8982 25.4741C41.1374 25.5473 41.4205 25.5204 41.7476 25.396C41.8892 25.352 42.0307 25.3081 42.1674 25.269C42.3041 25.23 42.4457 25.1763 42.597 25.1031C42.7191 25.0518 42.8313 25.003 42.929 24.9566C43.0266 24.9054 43.1242 24.8663 43.2219 24.8395C43.3244 24.8395 43.4269 24.8053 43.5245 24.7321C43.6221 24.7321 43.7198 24.693 43.8174 24.6149C43.8174 24.6418 43.8223 24.6613 43.8369 24.6735C43.8491 24.6881 43.8565 24.693 43.8565 24.693V25.3276C43.8296 25.4253 43.8174 25.5302 43.8174 25.64C43.8174 25.7523 43.8174 25.8548 43.8174 25.9525V26.6945C43.544 26.8458 43.2731 26.9556 43.0071 27.0264C42.8045 27.0997 42.6409 27.1729 42.5189 27.251C42.3749 27.3242 42.1528 27.395 41.855 27.4658C41.5816 27.5903 41.3717 27.7147 41.2302 27.8368C41.0544 28.0125 41.0007 28.2127 41.0739 28.4323C41.0739 28.6276 41.196 28.7521 41.445 28.8033C41.6915 28.8766 41.977 28.8497 42.3041 28.7252C42.4457 28.6813 42.5872 28.6374 42.7239 28.5983C42.8606 28.5593 43.0022 28.5056 43.1535 28.4323C43.2756 28.3811 43.3878 28.3323 43.4855 28.2859C43.5831 28.2346 43.6807 28.198 43.7784 28.1785H43.8174V28.5104C43.7906 28.6081 43.7784 28.7423 43.7784 28.9107L43.671 33.1382C43.671 33.458 43.6636 33.7826 43.6514 34.1145C43.6368 34.4465 43.6173 34.798 43.5929 35.169C43.5196 35.9378 43.4855 36.5309 43.4855 36.9459ZM48.0351 39.5722C48.0351 40.6144 48.206 41.1465 48.5526 41.1733C48.7796 41.1929 48.9651 41.1172 49.1091 40.9488C49.2311 40.7267 49.3068 40.4679 49.3336 40.1677C49.358 39.9725 49.3776 39.7943 49.3922 39.6307C49.4044 39.4697 49.4117 39.3379 49.4117 39.2402C49.3849 39.0718 49.3849 38.8765 49.4117 38.6544C49.4117 38.4543 49.4142 38.2493 49.4215 38.0393C49.4337 37.8319 49.4532 37.6049 49.4801 37.3559C49.4801 36.9337 49.5191 36.3161 49.5972 35.5009C49.5972 34.715 49.6314 33.6923 49.7046 32.4353C49.7046 31.1734 49.7388 29.5429 49.812 27.5439L49.8511 25.396C49.8242 25.1031 49.8047 24.8395 49.7925 24.6051C49.7852 24.3708 49.7827 24.1804 49.7827 24.0291C49.7559 23.7826 49.7559 23.5092 49.7827 23.209C49.7827 23.1382 49.7827 23.0406 49.7827 22.9161C49.7827 22.7941 49.7925 22.6476 49.812 22.4768V20.2898C49.7925 20.0897 49.7754 19.9042 49.7632 19.7333C49.7486 19.5576 49.7437 19.3989 49.7437 19.2549C49.7437 19.1329 49.7486 19.0084 49.7632 18.8839C49.7754 18.7619 49.7827 18.6374 49.7827 18.5129C49.7559 18.3909 49.7437 18.2737 49.7437 18.1614C49.7437 18.0516 49.7437 17.9222 49.7437 17.7709C49.7437 17.7001 49.7486 17.6025 49.7632 17.478C49.7754 17.356 49.7827 17.2193 49.7827 17.0679C49.7827 16.9191 49.7754 16.7726 49.7632 16.6286C49.7486 16.4797 49.7437 16.3308 49.7437 16.1795C49.69 15.8622 49.6412 15.6498 49.5972 15.5449C49.5191 15.4228 49.3458 15.3594 49.0798 15.3594C48.8772 15.3594 48.7283 15.4131 48.6307 15.5156C48.5331 15.6596 48.4574 15.9159 48.4061 16.2869V17.7318C48.3598 17.8832 48.3598 18.0199 48.4061 18.1419C48.4305 18.2932 48.4452 18.4299 48.4452 18.5519C48.4452 18.6764 48.4452 18.8009 48.4452 18.923C48.4183 19.0401 48.3988 19.167 48.3866 19.3037C48.372 19.4404 48.3671 19.5722 48.3671 19.6942L48.4452 23.2871C48.4183 23.4384 48.4183 23.5483 48.4452 23.6191V23.951C48.4183 24.0486 48.4183 24.1731 48.4452 24.322C48.4452 24.5173 48.4574 24.6418 48.4842 24.693V25.3276C48.4574 25.4253 48.4452 25.5302 48.4452 25.64C48.4452 25.7523 48.4452 25.8548 48.4452 25.9525C48.4452 26.1038 48.4452 26.2332 48.4452 26.343C48.4452 26.4553 48.4574 26.5456 48.4842 26.6164V27.9149C48.4574 28.0662 48.4379 28.2224 48.4257 28.3835C48.411 28.5397 48.4061 28.7155 48.4061 28.9107C48.4061 29.1597 48.3988 29.4379 48.3866 29.7504C48.372 30.0579 48.3671 30.3825 48.3671 30.7267C48.3475 31.0977 48.3305 31.4955 48.3183 31.9178C48.3036 32.3352 48.2987 32.7916 48.2987 33.2847L48.2206 35.7645C48.2206 36.0843 48.2133 36.4138 48.2011 36.7506C48.1938 37.0825 48.1767 37.4316 48.1523 37.7953C48.0742 38.5641 48.0351 39.1572 48.0351 39.5722ZM34.0835 23.2481C34.2055 23.2041 34.352 23.1675 34.5228 23.1407C34.6205 23.1407 34.8182 23.0796 35.1184 22.9552C35.1696 22.9039 35.2307 22.8771 35.3039 22.8771H35.4503C35.6261 22.8526 35.7969 22.7892 35.9678 22.6916C36.0459 22.672 36.1338 22.6501 36.2314 22.6232C36.329 22.5988 36.4267 22.572 36.5243 22.5451C36.5951 22.5451 36.6659 22.5305 36.7391 22.4963C36.8172 22.4572 36.8953 22.4255 36.9734 22.3987C37.0442 22.3743 37.1223 22.3498 37.2077 22.3303C37.2907 22.3059 37.3859 22.2791 37.4908 22.2522C37.6324 22.201 37.774 22.1448 37.9107 22.0862C38.0473 22.0228 38.1645 21.9544 38.2621 21.8812C38.411 21.7592 38.4721 21.559 38.4476 21.2857C38.3744 21.0123 38.2158 20.8658 37.9692 20.8463C37.8179 20.8463 37.6763 20.8463 37.5397 20.8463C37.403 20.8463 37.2761 20.8707 37.1589 20.9146C37.0076 20.9415 36.8782 20.9806 36.7684 21.0318C36.6561 21.0782 36.5389 21.127 36.4169 21.1783C36.1679 21.2759 35.958 21.3516 35.7823 21.4028C35.7091 21.4223 35.648 21.4394 35.5968 21.4516C35.5504 21.4663 35.5016 21.4712 35.4503 21.4712L35.1184 21.5883C35.0452 21.6078 34.9719 21.6322 34.8938 21.6567C34.8206 21.6835 34.7474 21.7104 34.6693 21.7348C34.5716 21.7543 34.4789 21.7787 34.3959 21.8031C34.3105 21.83 34.2299 21.8568 34.1518 21.8812C33.9566 21.9276 33.7833 21.9691 33.6344 22.0081C33.4904 22.0472 33.3805 22.0911 33.3024 22.1351C33.2048 22.1619 33.0998 22.2083 32.99 22.2717C32.8777 22.3303 32.7606 22.3865 32.6385 22.4377C32.4164 22.589 32.2578 22.7208 32.1601 22.838C32.0088 22.9893 31.9697 23.1748 32.043 23.3945C32.1211 23.6679 32.4042 23.7704 32.8924 23.6972C32.9949 23.6972 33.1706 23.6361 33.4196 23.5117C33.5172 23.4604 33.6197 23.4189 33.732 23.3847C33.8418 23.3457 33.959 23.3018 34.0835 23.2481ZM37.2663 28.6569C37.4152 28.6056 37.5397 28.5788 37.6373 28.5788C37.7862 28.6325 37.8838 28.6569 37.9302 28.6569C38.1059 28.7301 38.2036 28.8131 38.2231 28.9107C38.2231 28.9376 38.2231 28.9888 38.2231 29.0669C38.2231 29.1402 38.1987 29.2109 38.1547 29.2817C38.1279 29.3794 38.0962 29.4624 38.0571 29.5258C38.0229 29.5844 37.9937 29.6405 37.9692 29.6918C37.9424 29.7894 37.9107 29.8773 37.8716 29.9554C37.8374 30.0286 37.8082 30.0872 37.7837 30.1311C37.7569 30.2092 37.7105 30.2825 37.6471 30.3459C37.5885 30.4045 37.5348 30.4582 37.4908 30.5021C37.4127 30.6071 37.3298 30.7023 37.2468 30.7853C37.1613 30.8707 37.0808 30.9488 37.0027 31.0196L36.4462 31.5761C36.3485 31.681 36.2436 31.7762 36.1338 31.8592C36.0215 31.9447 35.8921 32.0228 35.7432 32.0935C35.67 32.1716 35.5992 32.2107 35.5284 32.2107C35.404 32.2571 35.3283 32.2449 35.3039 32.1716C35.2502 32.1472 35.2258 32.0716 35.2258 31.9471V31.6932C35.2258 31.5712 35.2648 31.4199 35.3429 31.2441C35.3673 31.1734 35.3918 31.1026 35.4113 31.0293C35.4357 30.9512 35.4625 30.878 35.4894 30.8048C35.5333 30.6559 35.587 30.5192 35.6456 30.3947C35.7091 30.2727 35.7554 30.1604 35.7823 30.0628C35.8335 29.8675 35.9214 29.6332 36.0459 29.3598C36.0898 29.2622 36.1386 29.1792 36.1923 29.106C36.2436 29.0279 36.2802 28.9644 36.2997 28.9107C36.6951 28.8399 37.0173 28.7545 37.2663 28.6569Z" fill="black"/>
<path d="M58.37 22.1368C58.4213 22.1173 58.5189 22.0831 58.6629 22.0294C58.7654 22.0294 58.8533 22.005 58.9265 21.9513C59.0241 21.9074 59.1071 21.8781 59.1804 21.8634C59.2585 21.8512 59.3195 21.8317 59.3659 21.8049C59.444 21.8049 59.6051 21.7707 59.854 21.6975C59.9761 21.6462 60.1005 21.6047 60.225 21.5705C60.3471 21.5315 60.4593 21.4876 60.557 21.4339C60.679 21.3899 60.7962 21.3533 60.9084 21.3265C61.0183 21.3021 61.1232 21.2752 61.2209 21.2484C61.5919 21.1776 61.8506 21.0433 62.0019 20.8481C62.0996 20.6723 62.1215 20.4746 62.0703 20.2525C61.997 20.0572 61.8872 19.9206 61.7383 19.8425C61.6407 19.8425 61.5284 19.8425 61.4064 19.8425C61.2819 19.8425 61.1574 19.8693 61.0354 19.9206C60.8645 19.9669 60.6937 20.0231 60.5179 20.0865C60.3422 20.1451 60.1689 20.2013 60.0005 20.2525C59.8247 20.3257 59.6734 20.3794 59.5514 20.4185C59.4269 20.4575 59.3414 20.4917 59.2975 20.5161C59.1462 20.5893 59.0363 20.6235 58.9656 20.6235C58.8142 20.6772 58.7142 20.7114 58.6629 20.7309C58.4139 20.8554 58.2187 20.9164 58.0771 20.9164C57.999 20.9433 57.9111 20.9701 57.8135 20.9945C57.7159 21.0214 57.5914 21.058 57.4425 21.1019C57.174 21.2264 56.9397 21.3021 56.7395 21.3265C56.6151 21.3533 56.4979 21.385 56.3881 21.4241C56.2758 21.4583 56.1733 21.4876 56.0756 21.512L55.0407 21.883C54.865 21.9562 54.7015 22.0245 54.5526 22.088C54.4086 22.1466 54.2743 22.2027 54.1523 22.254C54.0547 22.3272 53.9668 22.3809 53.8887 22.4199C53.8155 22.459 53.7544 22.5029 53.7032 22.5469C53.5787 22.625 53.5421 22.7495 53.5958 22.9179C53.5958 23.0692 53.669 23.179 53.8203 23.2498C53.8911 23.3475 54.0766 23.4231 54.3768 23.4744C54.4208 23.4744 54.4867 23.4622 54.5721 23.4353C54.6624 23.4109 54.7796 23.3621 54.9236 23.2889C55.0456 23.2376 55.1774 23.1888 55.3141 23.1424C55.4508 23.0912 55.568 23.0521 55.6656 23.0253V23.6208C55.6387 23.7185 55.6387 23.8307 55.6656 23.9528C55.6656 24.0309 55.6583 24.1065 55.6461 24.1773C55.6314 24.2506 55.6265 24.3116 55.6265 24.3628C55.5533 24.6826 55.5436 24.9657 55.5972 25.2122C55.5972 25.3367 55.5899 25.4734 55.5777 25.6223C55.5631 25.7736 55.5436 25.9201 55.5191 26.0616C55.4459 26.4595 55.4117 26.8305 55.4117 27.1746C55.3849 27.3504 55.3727 27.5432 55.3727 27.7507C55.3727 27.9606 55.3727 28.1607 55.3727 28.356L55.3336 28.6196C55.3336 28.6928 55.3385 28.766 55.3532 28.8441C55.3654 28.9174 55.3849 28.9906 55.4117 29.0687C55.4313 29.1859 55.5411 29.3079 55.7437 29.4299C55.8657 29.5544 56.0756 29.5813 56.3685 29.508C56.4906 29.4568 56.5955 29.4153 56.681 29.3811C56.7713 29.3421 56.8665 29.3103 56.9641 29.2835C57.0349 29.2396 57.1008 29.2103 57.1594 29.1956C57.2228 29.1834 57.2692 29.1639 57.296 29.137C57.4449 29.0931 57.7769 28.9808 58.2919 28.8051C58.7849 28.6562 59.3073 28.4707 59.854 28.2486C60.0493 28.1778 60.2299 28.1119 60.4008 28.0533C60.5765 27.9899 60.7254 27.9313 60.8499 27.8776C60.9719 27.8337 61.0769 27.797 61.1623 27.7702C61.2526 27.7458 61.3209 27.7189 61.3673 27.6921C61.4894 27.6482 61.6065 27.5945 61.7188 27.5359C61.8286 27.4724 61.958 27.426 62.1093 27.3992C62.2314 27.3479 62.3558 27.3064 62.4803 27.2723C62.6024 27.2332 62.7146 27.1893 62.8123 27.1356C63.5543 26.8427 63.8862 26.4375 63.8081 25.9152C63.7349 25.7199 63.5543 25.6101 63.2614 25.5832C62.9148 25.5832 62.5316 25.6955 62.1093 25.9152C62.0361 25.9689 61.9678 26.0128 61.9043 26.0519C61.8457 26.086 61.7896 26.1153 61.7383 26.1397C61.6651 26.1666 61.5919 26.1934 61.5138 26.2178C61.4405 26.2374 61.3429 26.274 61.2209 26.3252C61.0964 26.3716 60.9914 26.4131 60.9084 26.4522C60.823 26.4912 60.7547 26.5254 60.7034 26.5498C60.6058 26.5962 60.4813 26.6523 60.3324 26.7158C60.1811 26.7743 60.0346 26.8305 59.8931 26.8817C59.7173 26.955 59.566 27.0087 59.444 27.0477C59.3195 27.0868 59.2316 27.1161 59.1804 27.1356C59.1071 27.1893 58.9753 27.2405 58.7801 27.2918C58.6824 27.3113 58.5799 27.3406 58.4774 27.3797C58.3798 27.4187 58.2821 27.448 58.1845 27.4675C58.0869 27.4944 57.9892 27.5261 57.8916 27.5652C57.794 27.6042 57.7061 27.6335 57.628 27.653C57.4571 27.7311 57.3473 27.7702 57.296 27.7702C57.1984 27.8434 57.0251 27.9166 56.7786 27.9947C56.7786 27.819 56.7835 27.6408 56.7981 27.4578C56.8103 27.2698 56.8299 27.0648 56.8567 26.8427C56.8567 26.6474 56.8591 26.4522 56.8665 26.2569C56.8787 26.0567 56.8982 25.8664 56.925 25.6906L57.5889 25.4758C57.7378 25.4514 57.9722 25.3758 58.2919 25.2513C58.37 25.2269 58.4432 25.1976 58.5165 25.1634C58.5946 25.1244 58.6824 25.0926 58.7801 25.0658C58.9753 25.0145 59.1071 24.9657 59.1804 24.9193L59.5904 24.7338C59.688 24.6826 59.7783 24.646 59.8638 24.6264C59.9541 24.602 60.0493 24.5752 60.1469 24.5483C60.2958 24.5483 60.4813 24.5142 60.7034 24.4409C60.7547 24.4165 60.8303 24.3824 60.928 24.3433C61.0256 24.3042 61.1354 24.275 61.2599 24.2554C61.382 24.2042 61.4796 24.1651 61.5528 24.1383C61.6309 24.1139 61.7041 24.0895 61.7774 24.0699C62.4657 23.8698 62.7757 23.572 62.7049 23.1815C62.6268 22.7861 62.2899 22.6616 61.6993 22.8105C61.5553 22.83 61.4088 22.8666 61.2599 22.9179C61.1086 22.9716 60.9597 23.0204 60.8108 23.0643C60.6668 23.118 60.5277 23.1693 60.391 23.2205C60.2543 23.2669 60.1225 23.3157 60.0005 23.367C59.9028 23.4134 59.7783 23.4622 59.6295 23.5134C59.5562 23.5403 59.483 23.5671 59.4049 23.5915C59.3317 23.6111 59.2585 23.6355 59.1804 23.6599C59.0095 23.7331 58.8435 23.7868 58.6824 23.8259C58.5262 23.8649 58.3846 23.9088 58.2626 23.9528C57.916 24.0773 57.6085 24.1773 57.3351 24.2554C57.2814 24.275 57.2204 24.2847 57.1496 24.2847C57.052 24.3384 56.9885 24.3628 56.9641 24.3628C56.9641 24.2408 56.9763 24.1529 57.0032 24.0992C57.0032 24.0284 57.008 23.9381 57.0227 23.8259C57.0349 23.716 57.052 23.5867 57.0715 23.4353C57.0715 23.3133 57.0764 23.179 57.091 23.035C57.1032 22.8861 57.1105 22.7373 57.1105 22.5859C57.2082 22.5615 57.3058 22.5322 57.4034 22.4981C57.506 22.459 57.6085 22.4273 57.7061 22.4004C57.7769 22.3492 57.8672 22.3077 57.9795 22.2735C58.0893 22.2344 58.2187 22.1905 58.37 22.1368ZM69.9199 39.5446V40.6869C69.9199 41.7218 70.1176 42.2515 70.5155 42.2783C70.7351 42.3027 70.9206 42.232 71.072 42.0636C71.1427 41.8341 71.2135 41.5754 71.2867 41.2825C71.2867 41.2093 71.2916 41.1165 71.3063 40.9994C71.3185 40.8871 71.338 40.7602 71.3649 40.6186C71.3649 40.4697 71.3575 40.3159 71.3453 40.1597C71.3307 39.9986 71.3258 39.8278 71.3258 39.652C71.299 39.53 71.2867 39.3958 71.2867 39.2517C71.2867 39.1029 71.2867 38.9393 71.2867 38.7636V35.5417C71.2867 35.3733 71.2867 35.2147 71.2867 35.0633C71.2867 34.9144 71.299 34.79 71.3258 34.6923C71.3258 34.5703 71.3307 34.4385 71.3453 34.3018C71.3575 34.1651 71.3649 34.0138 71.3649 33.8429V32.6518C71.338 32.4565 71.3258 32.2686 71.3258 32.0855C71.3258 31.8976 71.3258 31.7048 71.3258 31.5095V31.2459C71.3258 31.2215 71.3307 31.1922 71.3453 31.158C71.3575 31.119 71.3649 31.075 71.3649 31.0213C71.338 30.9774 71.3258 30.9042 71.3258 30.8066C71.299 30.6064 71.1891 30.4551 70.9939 30.3574C70.7986 30.2867 70.5765 30.2745 70.33 30.3184C70.2323 30.3452 70.1298 30.3721 70.0273 30.3965C69.9297 30.4233 69.8442 30.46 69.7734 30.5039C69.5245 30.6284 69.3756 30.6894 69.3243 30.6894L67.8891 31.0995C67.7842 31.1263 67.6963 31.158 67.6255 31.1971C67.5523 31.2313 67.4791 31.2605 67.401 31.285C67.3278 31.3118 67.2472 31.3387 67.1569 31.3631C67.0715 31.3826 66.9934 31.4192 66.9226 31.4705C66.825 31.4973 66.7273 31.529 66.6297 31.5681C66.5321 31.6023 66.4295 31.6438 66.327 31.695C66.1049 31.8195 65.9097 31.8952 65.7412 31.9196C65.6363 31.9659 65.4972 32.0221 65.3214 32.0855C65.1506 32.1441 64.9699 32.21 64.7747 32.2808C64.5526 32.3589 64.3671 32.4321 64.2182 32.4956C64.0668 32.5542 63.9302 32.6079 63.8081 32.6518C63.6641 32.7299 63.5543 32.769 63.4762 32.769C63.3322 32.8422 63.2467 32.891 63.2223 32.9154C62.8245 33.1375 62.5633 33.323 62.4413 33.4719C62.2704 33.6672 62.2216 33.8527 62.2948 34.0284C62.3461 34.2505 62.4828 34.3604 62.7049 34.3604C62.9245 34.4067 63.1955 34.3579 63.5152 34.2139C63.5665 34.1895 63.6421 34.1553 63.7398 34.1163C63.8374 34.0772 63.935 34.0479 64.0327 34.0284L64.5892 33.8039C64.6404 33.8039 64.6893 33.7892 64.7356 33.755C64.7869 33.716 64.8479 33.6843 64.9211 33.6574C64.9992 33.633 65.0725 33.6062 65.1457 33.5793C65.2165 33.5549 65.3043 33.5305 65.4093 33.511C65.4801 33.4866 65.5582 33.4597 65.6436 33.4329C65.7266 33.4085 65.8096 33.3816 65.8877 33.3548C65.9853 33.3352 66.083 33.3011 66.1806 33.2474C66.4003 33.1766 66.6126 33.0887 66.8152 32.9838C66.9128 32.9398 67.0105 32.9008 67.1081 32.8666C67.2057 32.8275 67.3034 32.7836 67.401 32.7299C67.5499 32.6787 67.6792 32.6298 67.7915 32.5835C67.9014 32.5322 68.0063 32.4932 68.1039 32.4663L68.7385 32.2808C68.7825 32.2369 68.8948 32.1881 69.0705 32.1344C69.2194 32.1344 69.317 32.1222 69.3634 32.0953C69.4415 32.0953 69.5294 32.0733 69.627 32.027C69.6978 32.027 69.8076 31.9928 69.959 31.9196C69.959 32.0904 69.9638 32.2686 69.9785 32.4565C69.9907 32.6396 70.0102 32.8275 70.0371 33.0228C70.0371 33.2254 70.0297 33.4231 70.0175 33.6184C70.0029 33.8136 69.9834 34.0138 69.959 34.2139V38.4707C69.9321 38.6415 69.9199 38.8197 69.9199 39.0077C69.9199 39.1907 69.9199 39.3689 69.9199 39.5446ZM70.369 24.8803L70.3983 27.0672C70.3983 28.129 70.574 28.6586 70.9255 28.6586C71.1208 28.7319 71.3014 28.644 71.4722 28.395C71.5748 28.1754 71.6382 27.9264 71.6578 27.653C71.709 27.2381 71.709 26.8305 71.6578 26.4326C71.5845 26.0885 71.5845 25.8053 71.6578 25.5832V24.0309L71.6968 21.4339C71.6968 21.2923 71.709 21.1678 71.7359 21.0629V19.8132C71.6626 19.5666 71.6504 19.2567 71.6968 18.8857C71.6968 18.7636 71.7017 18.6269 71.7163 18.4756C71.7285 18.3267 71.7359 18.1534 71.7359 17.9582C71.709 17.7629 71.6968 17.5847 71.6968 17.4212C71.6968 17.2601 71.6968 17.1063 71.6968 16.9623C71.6968 16.8842 71.7017 16.7915 71.7163 16.6792C71.7285 16.5693 71.7359 16.4253 71.7359 16.2496C71.7359 16.108 71.7285 15.9665 71.7163 15.8298C71.7017 15.6931 71.6822 15.5515 71.6578 15.4002C71.6382 15.2782 71.6138 15.161 71.5894 15.0487C71.5626 14.9389 71.5357 14.8486 71.5113 14.7753C71.4381 14.6533 71.2672 14.5898 70.9939 14.5898C70.7986 14.5898 70.6521 14.6387 70.5545 14.7363C70.4496 14.8876 70.3739 15.1463 70.33 15.5173V17.138C70.3031 17.4383 70.3031 17.636 70.33 17.7336C70.3544 17.8849 70.3714 18.0265 70.3788 18.1632C70.391 18.2999 70.3983 18.4414 70.3983 18.583C70.3788 18.7343 70.369 18.8832 70.369 19.0321C70.369 19.1834 70.369 19.3201 70.369 19.4422V20.6626C70.1933 20.7358 70.0224 20.8163 69.8613 20.9066C69.7051 20.9921 69.5513 21.0702 69.4024 21.141C69.2316 21.2386 69.0656 21.3216 68.9045 21.385C68.741 21.4436 68.597 21.4998 68.4749 21.551C68.3773 21.5779 68.2943 21.6096 68.2309 21.6487C68.1723 21.6828 68.1186 21.6975 68.0746 21.6975C67.9965 21.7438 67.8818 21.7927 67.7329 21.8439C67.44 21.9952 67.2448 22.1173 67.1471 22.2149C66.9714 22.3907 66.9226 22.6006 67.0007 22.8398C67.0007 23.0424 67.1227 23.1668 67.3717 23.2108C67.567 23.2889 67.8501 23.2547 68.2211 23.1034C68.3187 23.079 68.4896 23.0033 68.7385 22.8788L69.2951 22.664C69.4366 22.6128 69.6099 22.5371 69.8125 22.4395C69.9101 22.3882 70.0004 22.3467 70.0859 22.3126C70.1689 22.2735 70.2518 22.2418 70.33 22.2149L70.369 24.8803ZM64.9992 24.8803L65.0383 26.6962C65.0383 27.758 65.2091 28.2876 65.5557 28.2876C65.751 28.3609 65.9365 28.273 66.1122 28.024C66.2099 27.8044 66.2709 27.5603 66.2977 27.2918C66.3417 26.8695 66.3417 26.4595 66.2977 26.0616C66.2196 25.7175 66.2196 25.4343 66.2977 25.2122V24.4019L66.327 22.1759C66.327 22.027 66.3392 21.9025 66.3661 21.8049V20.3599C66.2929 19.9962 66.2807 19.6277 66.327 19.2567V18.8076C66.327 18.7368 66.3319 18.6465 66.3466 18.5342C66.3588 18.4243 66.3661 18.2803 66.3661 18.1046C66.3661 17.9557 66.3588 17.8166 66.3466 17.6848C66.3319 17.5481 66.3173 17.4065 66.2977 17.2552C66.2709 17.1332 66.244 17.016 66.2196 16.9037C66.1928 16.7939 66.1659 16.6987 66.1415 16.6206C66.0683 16.4986 65.8974 16.4351 65.6241 16.4351C65.4288 16.4351 65.2824 16.4888 65.1847 16.5913C65.0871 16.7353 65.0114 16.9916 64.9602 17.3626V18.8076C64.9065 18.9589 64.9065 19.0956 64.9602 19.2176L64.9992 20.1744V22.1075C64.9992 22.2515 64.9919 22.3907 64.9797 22.5273C64.9651 22.664 64.9602 22.7958 64.9602 22.9179L64.9992 24.8803Z" fill="black"/>
<path d="M84.6206 17.6979C84.6987 17.6539 84.767 17.6002 84.8256 17.5417C84.889 17.4782 84.933 17.4318 84.9525 17.405C85.0038 17.3806 85.1038 17.2927 85.2552 17.1414C85.5481 16.7972 85.5481 16.4775 85.2552 16.1846C85.1038 16.0625 84.9549 16.0259 84.8061 16.0772C84.7084 16.0967 84.6157 16.1333 84.5327 16.1846C84.4473 16.2309 84.3789 16.2798 84.3277 16.331C84.23 16.4042 84.1275 16.4775 84.025 16.5556C83.9274 16.6288 83.82 16.7264 83.7028 16.8485C83.5515 16.9461 83.4246 17.0486 83.322 17.1511C83.2244 17.2488 83.139 17.3342 83.0682 17.405C82.9706 17.5026 82.8827 17.5978 82.8046 17.6881C82.7314 17.7735 82.6606 17.8516 82.5898 17.9224C82.4922 18.0201 82.397 18.1226 82.3067 18.2251C82.2212 18.3227 82.1309 18.4203 82.0333 18.518C81.882 18.6693 81.7453 18.8182 81.6232 18.9671C81.4988 19.1111 81.3743 19.2795 81.2522 19.4748C81.1009 19.6505 80.9715 19.8433 80.8617 20.0508C80.7494 20.2607 80.6469 20.4657 80.5493 20.6659C80.4761 20.8099 80.4077 20.9441 80.3443 21.0662C80.2857 21.1907 80.2295 21.3151 80.1783 21.4372C80.0343 21.6593 79.9244 21.9449 79.8463 22.2963C79.695 22.8114 79.6218 23.341 79.6218 23.8878C79.6218 24.5785 79.9171 24.9983 80.5102 25.1472C80.808 25.2204 81.1668 25.2424 81.5842 25.2156C81.8039 25.2156 82.0064 25.2009 82.1895 25.1667C82.3775 25.1277 82.5605 25.096 82.7362 25.0691C82.8583 25.0178 82.9828 24.9764 83.1073 24.9422C83.2293 24.9031 83.3416 24.8494 83.4392 24.7762C83.5368 24.7249 83.6345 24.6688 83.7321 24.6102C83.8297 24.5468 83.9298 24.4906 84.0348 24.4443C84.1055 24.393 84.1959 24.3369 84.3081 24.2783C84.418 24.2148 84.5229 24.1318 84.6206 24.0342C84.7426 23.9561 84.8402 23.8829 84.9134 23.8096C84.9916 23.7389 85.0648 23.69 85.138 23.6632C85.2161 23.6119 85.304 23.5436 85.4016 23.4582C85.4992 23.3752 85.5969 23.2824 85.6945 23.1848C85.8165 23.0823 85.9215 22.9871 86.0069 22.9017C86.0972 22.8187 86.1778 22.7406 86.251 22.6673C86.4463 22.4672 86.6171 22.2182 86.7685 21.9253C86.8197 21.8033 86.8685 21.6788 86.9149 21.5543C86.9662 21.4323 87.0052 21.2956 87.0321 21.1443C87.1029 20.8001 87.1395 20.539 87.1395 20.3632L87.0321 19.9239C87.0052 19.8726 86.9662 19.797 86.9149 19.6993C86.8685 19.6017 86.8197 19.5041 86.7685 19.4064C86.6952 19.3088 86.622 19.2258 86.5439 19.1526C86.4707 19.0745 86.4121 19.0013 86.3682 18.928C86.2437 18.8768 86.1558 18.7889 86.1046 18.6644C86.0313 18.5936 85.8947 18.518 85.6945 18.4399C85.6213 18.4399 85.5871 18.4179 85.5871 18.3715C85.5603 18.3715 85.5334 18.3666 85.509 18.352C85.4895 18.3398 85.4651 18.3325 85.4407 18.3325L84.9525 18.147L84.7377 18.0298C84.6132 18.0298 84.4887 17.9956 84.3667 17.9224C84.4106 17.8785 84.4595 17.8419 84.5132 17.815L84.6206 17.6979ZM76.9271 32.8797C77.0492 32.8553 77.1834 32.826 77.3274 32.7918C77.4763 32.7528 77.6398 32.721 77.8156 32.6942C77.984 32.6502 78.1597 32.6063 78.3428 32.5673C78.5307 32.5282 78.7138 32.4965 78.8895 32.4696L79.8854 32.2548C80.0343 32.2036 80.171 32.1621 80.2954 32.1279C80.4175 32.0889 80.5298 32.0571 80.6274 32.0303C80.6982 32.0059 80.7836 31.9766 80.8812 31.9424C80.9789 31.9034 81.0789 31.8716 81.1839 31.8448C81.3059 31.7935 81.4914 31.7447 81.7404 31.6983C82.1041 31.6739 82.5215 31.5372 82.9901 31.2883C83.3416 31.1125 83.7516 30.9905 84.2203 30.9173C84.4863 30.8733 84.7084 30.7977 84.8842 30.6927C84.9549 30.6488 85.033 30.6122 85.1185 30.5853C85.2088 30.5609 85.304 30.5463 85.4016 30.5463C85.4529 30.5463 85.6872 30.4852 86.1046 30.3608C86.4487 30.29 86.8197 30.1801 87.2176 30.0288C87.5886 29.958 87.9596 29.8482 88.3306 29.6969C88.6479 29.6261 88.8822 29.5504 89.0335 29.4723C89.1556 29.4479 89.3167 29.4113 89.5119 29.3649C89.7072 29.3137 89.9269 29.2526 90.1758 29.1794C90.3955 29.1086 90.6371 29.0427 90.8983 28.9842C91.157 28.9207 91.4109 28.8621 91.6598 28.8084C91.8551 28.784 92.0406 28.7205 92.2163 28.6229C92.2603 28.5985 92.3335 28.5741 92.4311 28.5546C92.5336 28.5302 92.6581 28.5033 92.8021 28.4765C93.0755 28.4765 93.322 28.4032 93.5441 28.2519C93.7638 28.1543 93.8517 27.9468 93.8077 27.6271C93.8077 27.3805 93.6955 27.217 93.4758 27.1389C93.1756 27.095 92.8412 27.1072 92.4702 27.178C92.2993 27.2048 92.1285 27.2439 91.9527 27.2951C91.7819 27.3415 91.611 27.3903 91.4353 27.4416C91.0374 27.566 90.7665 27.6368 90.6249 27.6564C90.52 27.6832 90.4199 27.7101 90.3223 27.7345C90.2246 27.7613 90.1392 27.7882 90.0684 27.8126C89.9708 27.8321 89.8683 27.8565 89.7658 27.8809C89.6681 27.9078 89.5827 27.9346 89.5119 27.959C89.4143 27.9859 89.2141 28.042 88.9164 28.125C88.6235 28.2104 88.2427 28.3154 87.7741 28.4374C87.3054 28.5887 86.7978 28.7376 86.251 28.8865C85.7092 29.0305 85.1185 29.2038 84.4741 29.404V28.701C84.4741 28.4545 84.4741 28.2397 84.4741 28.0566C84.4741 27.8687 84.4863 27.7003 84.5132 27.549C84.5132 27.4269 84.5058 27.2854 84.4936 27.1291C84.479 26.968 84.4741 26.7972 84.4741 26.6215C84.4473 26.4726 84.4204 26.3334 84.396 26.2016C84.3765 26.0649 84.3399 25.9478 84.2886 25.8502C84.191 25.65 83.9957 25.5621 83.7028 25.5866C83.4734 25.6134 83.3245 25.6891 83.2537 25.8111C83.1024 25.9624 83.0536 26.27 83.1073 26.7386C83.1073 26.9095 83.1073 27.0803 83.1073 27.2561C83.1073 27.4269 83.1195 27.5978 83.1463 27.7735V28.9939L83.1756 29.8043C83.1561 29.8311 83.1195 29.8433 83.0682 29.8433C82.7753 29.9678 82.4922 30.0776 82.2188 30.1753C82.0675 30.229 81.9308 30.2729 81.8087 30.312C81.6843 30.3461 81.5598 30.3876 81.4377 30.4389C81.3133 30.4657 81.1888 30.4975 81.0667 30.5365C80.9423 30.5707 80.8178 30.6 80.6957 30.6244C80.5517 30.6512 80.4053 30.683 80.2564 30.722C80.1051 30.7562 79.9464 30.7977 79.778 30.8489C79.673 30.8685 79.573 30.8929 79.4753 30.9173C79.3777 30.9441 79.2654 30.971 79.1434 30.9954C78.9921 31.0149 78.8505 31.0442 78.7138 31.0832C78.582 31.1223 78.4551 31.1662 78.333 31.2102C78.1817 31.237 78.045 31.2687 77.923 31.3078C77.7985 31.3469 77.674 31.3761 77.552 31.3957C77.4275 31.4225 77.3177 31.4542 77.22 31.4933C77.1224 31.5324 77.0467 31.5519 76.9955 31.5519C76.8002 31.5714 76.6074 31.608 76.4194 31.6593C76.2364 31.713 76.0704 31.7618 75.9215 31.8057C75.6018 31.9034 75.3064 32.0156 75.0331 32.1377C74.7841 32.289 74.6377 32.3622 74.5937 32.3622C74.5156 32.4355 74.4766 32.5721 74.4766 32.7723C74.4766 33.1189 74.7231 33.3263 75.2186 33.3971C75.243 33.3971 75.2796 33.3922 75.326 33.3776C75.3772 33.3654 75.4529 33.3483 75.5505 33.3288C75.6286 33.3044 75.7092 33.2702 75.7946 33.2312C75.8776 33.1921 75.9703 33.1628 76.068 33.1433C76.1461 33.1189 76.2266 33.0847 76.312 33.0457C76.395 33.0066 76.4878 32.9773 76.5854 32.9578C76.6635 32.9334 76.7319 32.9139 76.7904 32.8992C76.8539 32.887 76.9003 32.8797 76.9271 32.8797ZM82.3262 38.5814C82.3506 38.4594 82.3701 38.3349 82.3848 38.2104C82.397 38.0884 82.4043 37.9639 82.4043 37.8394C82.3506 37.5929 82.3652 37.3366 82.4434 37.0681C82.4873 36.9192 82.5117 36.6947 82.5117 36.3944C82.4848 36.2529 82.4726 36.0918 82.4726 35.916C82.4726 35.7403 82.4726 35.5694 82.4726 35.3986C82.4726 34.9056 82.2505 34.6566 81.8087 34.6566C81.3133 34.6566 81.0667 34.9056 81.0667 35.3986C81.0399 35.5231 81.0277 35.6402 81.0277 35.7501C81.0277 35.8623 81.0277 35.9649 81.0277 36.0625V36.5799C80.9813 36.7313 80.9593 36.8411 80.9593 36.9119C80.9056 37.0632 80.9056 37.1999 80.9593 37.3219C80.9838 37.4977 80.9984 37.6539 80.9984 37.7906C80.9984 37.9224 80.9984 38.0493 80.9984 38.1713C80.9715 38.2958 80.952 38.4325 80.9398 38.5814C80.9252 38.7327 80.9056 38.8816 80.8812 39.0305C80.808 39.421 80.7738 39.7896 80.7738 40.1338C80.747 40.3095 80.7348 40.4999 80.7348 40.7C80.7348 40.8953 80.7348 41.1028 80.7348 41.3249L80.6957 41.5787C80.6957 41.6568 80.7006 41.73 80.7153 41.8033C80.7275 41.8741 80.747 41.9497 80.7738 42.0278C80.7982 42.1255 80.9105 42.2475 81.1058 42.3988C81.2815 42.5209 81.4914 42.5453 81.7404 42.4672C81.8576 42.4208 81.9576 42.3793 82.0431 42.3402C82.1334 42.3012 82.2286 42.267 82.3262 42.2426C82.4043 42.1962 82.4726 42.1596 82.5312 42.1352C82.5947 42.1084 82.6386 42.0962 82.6581 42.0962C82.7094 42.0766 82.7777 42.0473 82.8632 42.0083C82.9462 41.9692 83.078 41.9351 83.2537 41.9107C83.4026 41.8374 83.5686 41.7691 83.7516 41.7056C83.9396 41.6471 84.1446 41.5812 84.3667 41.5104C84.562 41.4054 84.7816 41.3102 85.0306 41.2272C85.2771 41.1418 85.5236 41.0515 85.7726 40.9539C86.0191 40.8294 86.2657 40.7269 86.5146 40.6414C86.7611 40.5511 87.0077 40.4559 87.2566 40.3583C87.5495 40.2363 87.8278 40.1191 88.0963 40.0068C88.3696 39.897 88.6284 39.792 88.8773 39.6944C89.346 39.5455 89.6315 39.4357 89.7365 39.3625C89.9317 39.2648 90.249 39.1428 90.6933 38.9915C91.0887 38.9134 91.3987 38.8035 91.6208 38.6595C91.9918 38.4594 92.2383 38.247 92.3628 38.0249C92.4336 37.7784 92.4458 37.5709 92.4018 37.4001C92.3237 37.1999 92.1724 37.0876 91.9527 37.0681C91.7038 37.0681 91.3596 37.1804 90.9178 37.4001C90.8202 37.4464 90.7567 37.4684 90.7323 37.4684C90.7055 37.4952 90.6542 37.5221 90.5761 37.5465C90.5029 37.5734 90.4321 37.61 90.3613 37.6539C90.1392 37.7515 89.9537 37.8272 89.8048 37.8785C89.7072 37.9053 89.6193 37.937 89.5412 37.9761C89.468 38.0103 89.4094 38.0395 89.3655 38.064C89.3118 38.0908 89.219 38.1299 89.0823 38.1811C88.9457 38.2275 88.7797 38.2861 88.5844 38.3568C88.3623 38.4545 88.128 38.5497 87.8815 38.64C87.6325 38.7254 87.3738 38.8157 87.1004 38.9134C86.8075 39.011 86.5293 39.1135 86.2705 39.216C86.0094 39.3136 85.7555 39.3991 85.509 39.4699C84.9427 39.7188 84.6596 39.8409 84.6596 39.8409C84.6328 39.8677 84.5839 39.8946 84.5132 39.919C84.4399 39.9385 84.3667 39.9751 84.2886 40.0264C84.191 40.0801 84.0933 40.1313 83.9957 40.1826C83.8981 40.2289 83.7858 40.2753 83.6638 40.3193C83.5661 40.373 83.4587 40.4169 83.3416 40.4559C83.2293 40.4901 83.1268 40.5316 83.0291 40.5829C82.807 40.6561 82.6826 40.6903 82.6581 40.6903C82.4873 40.7415 82.3164 40.8172 82.1407 40.9148C82.1407 40.7391 82.1456 40.5609 82.1602 40.3778C82.1724 40.1972 82.1919 39.9922 82.2188 39.7628C82.2188 39.3722 82.253 38.9793 82.3262 38.5814ZM84.6206 19.2893C84.7694 19.3674 84.9061 19.4406 85.0306 19.5041C85.1526 19.5626 85.2503 19.6163 85.3235 19.6603C85.4724 19.8116 85.5822 19.9825 85.6555 20.1777C85.7067 20.3291 85.7336 20.4169 85.7336 20.4413C85.7067 20.5146 85.6945 20.6024 85.6945 20.7049C85.6945 20.8026 85.6872 20.8782 85.675 20.9295C85.6603 20.9759 85.6555 21.0222 85.6555 21.0662C85.6091 21.1443 85.5603 21.2322 85.509 21.3298C85.3845 21.6227 85.138 21.9327 84.767 22.2573C84.5961 22.4086 84.4497 22.5307 84.3277 22.6283C84.2032 22.7259 84.1055 22.8114 84.0348 22.8821C83.9298 22.9602 83.8102 23.0432 83.6735 23.1262C83.5417 23.2116 83.3757 23.302 83.1756 23.3996C82.9803 23.5241 82.8192 23.6119 82.6972 23.6632C82.624 23.69 82.5507 23.7218 82.4726 23.7608C82.3994 23.795 82.3018 23.8365 82.1797 23.8878C82.004 23.961 81.8576 23.9951 81.7404 23.9951C81.5378 23.9951 81.4011 23.9707 81.3303 23.917C81.2059 23.917 81.1448 23.8682 81.1448 23.7706C81.0911 23.7267 81.0667 23.6632 81.0667 23.5851C81.0399 23.4875 81.0399 23.3288 81.0667 23.1067C81.0667 22.9847 81.0911 22.848 81.1448 22.6966C81.1693 22.5282 81.2327 22.3549 81.3303 22.1792C81.4011 22.0571 81.4768 21.8619 81.5549 21.5934C81.5744 21.4445 81.6721 21.2468 81.8478 20.9978C81.9967 20.8489 82.1065 20.7001 82.1797 20.5487C82.3018 20.4072 82.3994 20.2461 82.4726 20.0703C82.4971 19.9214 82.5849 19.797 82.7362 19.6993C82.7362 19.6017 82.8339 19.4797 83.0291 19.3283L83.5466 18.8109C83.6955 18.9085 83.8932 18.9964 84.1422 19.0745C84.3374 19.199 84.4961 19.2697 84.6206 19.2893Z" fill="#FFDE59"/>
</svg>
