<svg width="150" height="150" viewBox="0 0 150 150" fill="none" xmlns="http://www.w3.org/2000/svg">
<circle cx="75" cy="75" r="75" fill="url(#paint0_linear_381_5284)"/>
<path d="M94.8963 45.2656C91.0079 38.3071 83.9669 34.3159 75.5892 34.3159C62.9335 34.3159 55.5415 41.3771 52.2804 53.3981C50.2408 60.9025 63.118 66.2514 65.99 56.0518C67.5322 50.5803 69.6129 48.2882 75.5892 48.2882C78.8981 48.2882 81.2996 49.5708 82.7049 52.0882C84.2331 54.824 84.0899 58.1804 83.0597 59.8589C81.3879 62.581 79.5939 64.1571 77.5198 65.9784C73.1806 69.792 67.7913 74.6565 67.7913 87.6394C67.7913 94.5232 74.7774 94.6256 74.7774 94.6256C78.6319 94.6256 81.7635 91.494 81.7635 87.6394C81.7635 80.8444 83.2166 79.5688 86.7299 76.4847C89.1727 74.3427 92.1948 71.6887 94.9648 67.1722C98.8396 60.8547 98.8124 52.2587 94.8963 45.2656Z" fill="#FFDE59"/>
<path d="M90.5003 64.43C88.133 68.2775 85.5541 70.5428 83.2756 72.5486C79.3525 75.9871 76.5214 78.4773 76.5214 87.6396C76.5214 88.6016 75.7435 89.3861 74.7749 89.3861C73.8129 89.3861 73.0284 88.6016 73.0284 87.6396C73.0284 76.8943 76.883 73.5106 80.9695 69.9218C83.1663 67.9912 85.4382 65.9991 87.519 62.6014C89.7022 59.0539 89.5998 53.6781 87.2734 49.53C84.9401 45.3544 80.7855 43.0487 75.5867 43.0487C67.1133 43.0487 62.4263 46.869 60.8436 55.0626C60.6595 56.011 59.7485 56.632 58.8001 56.4477C57.8517 56.2636 57.231 55.3495 57.4152 54.4011C59.3189 44.5496 65.4283 39.5557 75.5867 39.5557C82.109 39.5557 87.3415 42.4961 90.3229 47.8244C93.284 53.1048 93.352 59.7769 90.5003 64.43Z" fill="#FFDE59"/>
<path d="M75.1152 98.9375C70.483 98.9375 66.7305 102.69 66.7305 107.322C66.7305 111.954 70.483 115.707 75.1152 115.707C79.7407 115.707 83.4933 111.954 83.4933 107.322C83.4933 102.69 79.7407 98.9375 75.1152 98.9375Z" fill="#FFDE59"/>
<path d="M75.1178 110.468C73.3783 110.468 71.9727 109.062 71.9727 107.322C71.9727 105.589 73.3783 104.177 75.1178 104.177C76.8507 104.177 78.2564 105.589 78.2564 107.322C78.2563 109.062 76.8507 110.468 75.1178 110.468Z" fill="#FFDE59"/>
<defs>
<linearGradient id="paint0_linear_381_5284" x1="75" y1="0" x2="75" y2="150" gradientUnits="userSpaceOnUse">
<stop stop-color="#FFF9E2"/>
<stop offset="1" stop-color="#FFEC9E"/>
</linearGradient>
</defs>
</svg>
